[img]http://img15.imageshack.us/img15/8163/greatgambler.jpg[/img]

[img]http://img819.imageshack.us/img819/5598/roadies1.jpg[/img]


[b]MTV Roadies 9 : Everything or Nothing is the ninth season of MTV Roadies, a reality television show aired on MTV India . The auditions started on 16 September from Pune following with Audition in Kolkata , Delhi, Chandhigarh and Hyderabad. Part of the season will take place in United States of America. The show started airing on MTV India from 7th January 2012 and every new episode airs on Saturdays at 7 P.M. IST.[/b]


[img]http://img18.imageshack.us/img18/6966/infoum.png[/img]


General

Format : AVI
Format/Info : Audio Video Interleave
File size : 391 MiB
Duration : 1h 2mn
Overall bit rate : 874 Kbps
Writing application : MEncoder SVN-r30881(20100311-gcc4.3.3)
Writing library : MPlayer


Video

ID : 0
Format : MPEG-4 Visual
Format profile : Advanced Simple@L5
Format settings, BVOP : 2
Format settings, QPel : No
Format settings, GMC : No warppoints
Format settings, Matrix : Default (H.263)
Codec ID : XVID
Codec ID/Hint : XviD
Duration : 1h 2mn
Bit rate : 766 Kbps
Width : 516 pixels
Height : 386 pixels
Display aspect ratio : 4:3
Frame rate : 25.000 fps
Color space : YUV
Chroma subsampling : 4:2:0
Bit depth : 8 bits
Scan type : Progressive
Compression mode : Lossy
Bits/(Pixel*Frame) : 0.154
Stream size : 342 MiB (88%)
Writing library : XviD 1.2.1 (UTC 2008-12-04)


Audio

ID : 1
Format : MPEG Audio
Format version : Version 1
Format profile : Layer 3
Mode : Joint stereo
Mode extension : MS Stereo
Codec ID : 55
Codec ID/Hint : MP3
Duration : 1h 2mn
Bit rate mode : Constant
Bit rate : 96.0 Kbps
Channel(s) : 2 channels
Sampling rate : 44.1 KHz
Compression mode : Lossy
Delay relative to video : 40ms
Stream size : 42.9 MiB (11%)
Alignment : Aligned on interleaves
Interleave, duration : 26 ms (0.65 video frame)
Interleave, preload duration : 522 ms
Writing library : LAME3.98
Language : Hindi



[img]http://img231.imageshack.us/img231/3671/screenshoots.png[/img]

[img]http://img254.imageshack.us/img254/8646/vlcsnap2012011820h03m10.png[/img]

[img]http://img832.imageshack.us/img832/6756/vlcsnap2012011820h03m45.png[/img]

[img]http://img811.imageshack.us/img811/8141/vlcsnap2012011820h04m16.png[/img]

[img]http://img513.imageshack.us/img513/6543/vlcsnap2012011820h04m34.png[/img]

[img]http://img507.imageshack.us/img507/8300/vlcsnap2012011820h04m48.png[/img]

[img]http://img641.imageshack.us/img641/6735/vlcsnap2012011820h06m40.png[/img]

[img]http://img252.imageshack.us/img252/4656/vlcsnap2012011820h06m57.png[/img]

[img]http://img560.imageshack.us/img560/73/vlcsnap2012011820h07m10.png[/img]